<svg xmlns="http://www.w3.org/2000/svg" xmlns:xlink="http://www.w3.org/1999/xlink" version="1.1" x="0px" y="0px" viewBox="0 0 100 100" enable-background="new 0 0 100 100" xml:space="preserve"><path d="M50,36.044c-7.695,0-13.955,6.26-13.955,13.956S42.305,63.956,50,63.956S63.955,57.695,63.955,50S57.695,36.044,50,36.044z   M50,58.956c-4.938,0-8.955-4.018-8.955-8.956s4.018-8.956,8.955-8.956s8.955,4.018,8.955,8.956S54.938,58.956,50,58.956z   M89.166,48.55C79.477,34.936,65.201,27.127,50,27.127S20.523,34.936,10.834,48.55L9.803,50l1.031,1.449  C20.522,65.064,34.798,72.873,50,72.873s29.478-7.809,39.166-21.424L90.197,50L89.166,48.55z M50,67.873  c-13.021,0-25.328-6.49-34.023-17.873C24.672,38.617,36.98,32.127,50,32.127S75.328,38.617,84.023,50  C75.328,61.383,63.021,67.873,50,67.873z"></path></svg>